<svg width="8" height="8" viewBox="0 0 8 8" fill="none" xmlns="http://www.w3.org/2000/svg">
<path d="M3.9753 2.14372C3.04963 2.14372 2.30299 2.88651 2.30299 3.80741C2.30299 4.7283 3.04963 5.47109 3.9753 5.47109C4.90096 5.47109 5.6476 4.7283 5.6476 3.80741C5.6476 2.88651 4.90096 2.14372 3.9753 2.14372ZM3.9753 4.88902C3.37711 4.88902 2.88808 4.40396 2.88808 3.80741C2.88808 3.21085 3.37565 2.72579 3.9753 2.72579C4.57494 2.72579 5.06251 3.21085 5.06251 3.80741C5.06251 4.40396 4.57348 4.88902 3.9753 4.88902ZM6.10606 2.07567C6.10606 2.29141 5.93141 2.46372 5.71601 2.46372C5.49914 2.46372 5.32595 2.28996 5.32595 2.07567C5.32595 1.86137 5.5006 1.68762 5.71601 1.68762C5.93141 1.68762 6.10606 1.86137 6.10606 2.07567ZM7.21366 2.46951C7.18891 1.9497 7.06957 1.48925 6.68679 1.10989C6.30546 0.730527 5.84263 0.611795 5.32013 0.585732C4.78161 0.555326 3.16752 0.555326 2.62901 0.585732C2.10796 0.610347 1.64513 0.729079 1.26235 1.10844C0.879567 1.4878 0.761676 1.94825 0.735478 2.46806C0.704914 3.0038 0.704914 4.60957 0.735478 5.14531C0.760221 5.66512 0.879567 6.12556 1.26235 6.50493C1.64513 6.88429 2.10651 7.00302 2.62901 7.02908C3.16752 7.05949 4.78161 7.05949 5.32013 7.02908C5.84263 7.00447 6.30546 6.88574 6.68679 6.50493C7.06811 6.12556 7.18746 5.66512 7.21366 5.14531C7.24422 4.60957 7.24422 3.00525 7.21366 2.46951ZM6.51795 5.72014C6.40443 6.00394 6.18466 6.22258 5.89794 6.33696C5.46858 6.50637 4.44977 6.46728 3.9753 6.46728C3.50082 6.46728 2.48055 6.50493 2.05265 6.33696C1.76739 6.22402 1.54762 6.00538 1.43264 5.72014C1.26235 5.293 1.30165 4.27944 1.30165 3.80741C1.30165 3.33538 1.2638 2.32037 1.43264 1.89467C1.54616 1.61088 1.76593 1.39224 2.05265 1.27785C2.48201 1.10844 3.50082 1.14753 3.9753 1.14753C4.44977 1.14753 5.47004 1.10989 5.89794 1.27785C6.1832 1.39079 6.40297 1.60943 6.51795 1.89467C6.68824 2.32182 6.64894 3.33538 6.64894 3.80741C6.64894 4.27944 6.68824 5.29444 6.51795 5.72014Z" fill="white"/>
</svg>
