<svg width="9" height="7" viewBox="0 0 9 7" fill="none" xmlns="http://www.w3.org/2000/svg">
<path d="M8.10314 1.62812C7.82845 1.74529 7.5371 1.82219 7.23876 1.85628C7.54951 1.67696 7.78812 1.39299 7.90047 1.05464C7.60506 1.22342 7.28186 1.34234 6.94483 1.40626C6.67029 1.12466 6.27919 0.948669 5.84632 0.948669C5.01518 0.948669 4.34132 1.59744 4.34132 2.39763C4.34132 2.51121 4.35464 2.62178 4.38029 2.72786C3.12954 2.66742 2.02063 2.09056 1.27834 1.21391C1.14883 1.42791 1.07461 1.67685 1.07461 1.94236C1.07461 2.44508 1.34032 2.88857 1.74412 3.14843C1.50513 3.14122 1.2714 3.07907 1.06244 2.96717C1.06235 2.97324 1.06235 2.97931 1.06235 2.9854C1.06235 3.68745 1.5811 4.27311 2.26955 4.40622C2.04793 4.46425 1.81547 4.47274 1.58993 4.43105C1.78142 5.00672 2.33723 5.42562 2.99575 5.43735C2.4807 5.82596 1.83177 6.05762 1.12671 6.05762C1.00521 6.05762 0.88544 6.05075 0.7677 6.03737C1.43371 6.4485 2.22476 6.68838 3.07464 6.68838C5.84282 6.68838 7.35653 4.48043 7.35653 2.56567C7.35653 2.50282 7.3551 2.44033 7.35217 2.3782C7.6468 2.17313 7.9011 1.91913 8.10314 1.62812Z" fill="white"/>
</svg>
